<?xml version="1.0" encoding="utf-8"?>
<!-- Generator: Adobe Illustrator 25.4.1, SVG Export Plug-In . SVG Version: 6.00 Build 0)  -->
<svg version="1.1" id="Layer_1" xmlns="http://www.w3.org/2000/svg" xmlns:xlink="http://www.w3.org/1999/xlink" x="0px" y="0px"
	 viewBox="0 0 60 60" style="enable-background:new 0 0 60 60;" xml:space="preserve">
<g>
	<path d="M28.61,55c-0.4-0.25-0.53-0.61-0.53-1.07c0.01-5.07,0.01-10.15,0.01-15.22c0-0.83,0.27-1.1,1.11-1.11c3.24,0,6.47,0,9.71,0
		c0.71,0,0.71,0,0.71-0.73c0-1.48-0.01-2.96,0.01-4.44c0-0.4-0.13-0.54-0.53-0.53c-1.01,0.02-2.02,0.01-3.02,0.01
		c-0.63,0-1-0.3-1.03-0.8c-0.03-0.47,0.36-0.88,0.96-0.89c1.45-0.03,2.89-0.03,4.34,0c0.69,0.01,0.98,0.37,0.98,1.06
		c0,2.32,0,4.65,0,6.97c0,0.68-0.31,1.01-1,1.05c-0.55,0.03-1.11,0.01-1.66,0.01c-2.75,0-5.49,0.01-8.24-0.01
		c-0.5,0-0.63,0.15-0.63,0.64c0.02,4.26,0.01,8.52,0.01,12.78c0,0.61,0.01,0.63,0.64,0.61c7.78-0.25,13.95-3.56,18.55-9.81
		c2.34-3.18,3.73-6.78,4.15-10.7c0.74-6.87-1.11-12.98-5.67-18.19c-3.7-4.23-8.38-6.84-13.93-7.65c-7.09-1.03-13.45,0.78-18.89,5.5
		c-4.28,3.71-6.88,8.41-7.71,14C6,32.64,7.35,38.33,10.93,43.45c2.39,3.42,5.5,5.99,9.28,7.77c0.38,0.18,0.49,0.16,0.49-0.29
		c-0.01-3.69-0.01-7.38,0-11.07c0-0.43-0.15-0.56-0.57-0.55c-1.82,0.02-3.64,0.01-5.46,0.01c-1.03,0-1.31-0.28-1.31-1.29
		c0-2.21,0-4.42,0-6.63c0-0.85,0.31-1.17,1.18-1.18c1.82-0.01,3.64,0,5.46,0c0.7,0,0.74-0.01,0.76-0.74c0.03-1,0.19-1.97,0.46-2.93
		c0.95-3.35,2.97-5.92,5.74-7.94c2.33-1.71,4.96-2.71,7.83-3c1.84-0.19,3.7-0.14,5.55-0.1c0.7,0.02,0.98,0.36,0.98,1.06
		c0,2.31,0,4.62,0,6.93c0,0.77-0.32,1.09-1.1,1.1c-1.48,0.01-2.96-0.03-4.44,0.02c-1.55,0.06-3.02,0.45-4.25,1.47
		c-1.15,0.95-1.68,2.19-1.74,3.67c-0.01,0.38,0.15,0.48,0.49,0.47c0.52-0.02,1.04-0.02,1.56,0.01c0.42,0.02,0.82,0.14,0.97,0.6
		c0.17,0.53-0.17,1.07-0.73,1.08c-1.07,0.03-2.15,0.02-3.22,0c-0.44-0.01-0.73-0.3-0.76-0.74c-0.15-2.15,0.19-4.16,1.73-5.8
		c1.34-1.42,3.05-2.12,4.95-2.38c1.42-0.2,2.86-0.08,4.28-0.09c0.43,0,0.56-0.14,0.56-0.56c-0.02-1.54-0.01-3.09-0.01-4.63
		c0-0.24,0.03-0.51-0.35-0.51c-2.03,0-4.07-0.09-6.06,0.39c-3.79,0.91-6.79,2.97-8.91,6.24c-1.07,1.65-1.71,3.45-1.83,5.44
		c-0.03,0.55-0.07,1.1-0.07,1.65c-0.01,0.71-0.3,1.01-1.01,1.01c-1.9,0.01-3.8,0.01-5.71-0.01c-0.45-0.01-0.63,0.11-0.62,0.59
		c0.03,1.53,0.02,3.06,0,4.58c0,0.4,0.13,0.53,0.53,0.53c1.9-0.02,3.8-0.01,5.71-0.01c0.81,0,1.09,0.28,1.1,1.07c0,4.6,0,9.2,0,13.8
		c0,0.93-0.5,1.26-1.37,0.92c-5.33-2.08-9.49-5.57-12.48-10.45c-1.77-2.89-2.86-6.04-3.36-9.39c-0.07-0.5-0.12-1-0.19-1.49
		c0-1.37,0-2.73,0-4.1c0.09-0.64,0.16-1.29,0.26-1.93c0.79-4.95,2.88-9.3,6.29-12.96c4.39-4.71,9.8-7.4,16.23-7.98
		c2.89-0.26,5.74-0.04,8.55,0.7c5,1.32,9.23,3.93,12.57,7.87c5.23,6.16,7.08,13.27,5.61,21.19c-1.07,5.75-3.95,10.51-8.41,14.3
		c-3.01,2.56-6.44,4.3-10.3,5.21c-1.25,0.3-2.52,0.46-3.79,0.63C30.88,55,29.74,55,28.61,55z"/>
</g>
</svg>
