<?xml version="1.0" encoding="utf-8"?>
<!-- Generator: Adobe Illustrator 25.4.1, SVG Export Plug-In . SVG Version: 6.00 Build 0)  -->
<svg version="1.1" id="Layer_1" xmlns="http://www.w3.org/2000/svg" xmlns:xlink="http://www.w3.org/1999/xlink" x="0px" y="0px"
	 viewBox="0 0 60 60" style="enable-background:new 0 0 60 60;" xml:space="preserve">
<style type="text/css">
	.st0{fill:#3FA89B;}
</style>
<g>
	<path class="st0" d="M32.02,5c1.27,0.17,2.54,0.33,3.79,0.63c3.87,0.92,7.32,2.67,10.34,5.25c3.99,3.4,6.68,7.63,8.03,12.7
		c0.75,2.82,0.98,5.69,0.71,8.6c-0.59,6.43-3.27,11.85-7.98,16.24c-3.67,3.41-8.01,5.49-12.96,6.3c-1.61,0.26-3.23,0.32-4.86,0.29
		c-0.7-0.02-1-0.32-1-1.03c0-5.12,0-10.25,0-15.37c0-0.74,0.3-1.03,1.04-1.03c3.28,0,6.57-0.01,9.85,0.01
		c0.48,0,0.66-0.11,0.65-0.62c-0.03-1.51-0.02-3.02,0-4.54c0.01-0.43-0.14-0.56-0.56-0.55c-1.01,0.03-2.02,0.01-3.02,0.01
		c-0.61,0-1-0.33-1.01-0.83c-0.01-0.46,0.37-0.85,0.94-0.86c1.46-0.03,2.93-0.03,4.39,0c0.66,0.01,0.96,0.37,0.96,1.04
		c0,2.34,0,4.68,0,7.03c0,0.62-0.27,0.93-0.89,1.01c-0.19,0.03-0.39,0.02-0.58,0.02c-3.14,0-6.28,0-9.41,0c-0.64,0-0.64,0-0.64,0.66
		c0,4.23,0,8.46,0,12.68c0,0.69,0,0.69,0.67,0.68c10.82-0.12,20.45-8.06,22.41-18.96c1.46-8.13-0.81-15.2-6.64-21.04
		c-3.51-3.52-7.81-5.67-12.74-6.37c-7.12-1-13.48,0.82-18.92,5.56c-4.25,3.71-6.87,8.41-7.65,13.99c-1.1,7.86,1.25,14.64,6.84,20.27
		c1.88,1.9,4.1,3.35,6.52,4.48c0.34,0.16,0.41,0.08,0.41-0.27c-0.01-3.72-0.01-7.45,0-11.17c0-0.42-0.17-0.52-0.55-0.52
		c-1.82,0.01-3.64,0.01-5.46,0c-1.05,0-1.32-0.28-1.32-1.33c0-2.2,0-4.39,0-6.59c0-0.86,0.31-1.18,1.17-1.19c1.8-0.01,3.61,0,5.41,0
		c0.77,0,0.8,0,0.82-0.78c0.04-1.55,0.4-3.02,0.99-4.44c1.11-2.64,2.9-4.72,5.2-6.39c2.34-1.7,4.96-2.71,7.83-3.01
		c1.86-0.19,3.73-0.14,5.6-0.09c0.67,0.02,0.94,0.37,0.94,1.05c0,2.31,0,4.62,0,6.93c0,0.77-0.31,1.1-1.09,1.11
		c-1.51,0.01-3.03-0.04-4.54,0.03c-1.53,0.07-2.99,0.48-4.2,1.49c-1.14,0.96-1.67,2.21-1.7,3.68c-0.01,0.32,0.13,0.43,0.43,0.43
		c0.54-0.01,1.07-0.01,1.61,0.01c0.4,0.02,0.78,0.12,0.96,0.55c0.21,0.53-0.13,1.12-0.71,1.13c-1.07,0.03-2.15,0.02-3.22,0
		c-0.45-0.01-0.74-0.29-0.77-0.74c-0.16-2.17,0.19-4.19,1.76-5.83c1.35-1.41,3.06-2.1,4.96-2.35c1.41-0.19,2.82-0.08,4.24-0.09
		c0.42,0,0.57-0.13,0.56-0.56c-0.02-1.53-0.02-3.06,0-4.59c0-0.41-0.1-0.58-0.54-0.57c-1.96,0.02-3.94-0.07-5.87,0.39
		c-3.77,0.9-6.76,2.95-8.89,6.2c-1.08,1.66-1.73,3.48-1.86,5.48c-0.03,0.55-0.07,1.1-0.07,1.65c-0.01,0.71-0.3,1.01-1.01,1.01
		c-1.9,0.01-3.8,0.02-5.71-0.01c-0.51-0.01-0.63,0.16-0.62,0.64c0.03,1.51,0.02,3.02,0,4.54c0,0.4,0.12,0.54,0.53,0.53
		c1.89-0.02,3.77-0.01,5.66-0.01c0.88,0,1.15,0.26,1.15,1.12c0,4.57,0,9.14,0,13.71c0,0.99-0.49,1.32-1.41,0.96
		c-5.29-2.08-9.44-5.55-12.41-10.39c-1.86-3.03-3.02-6.32-3.42-9.87c-0.04-0.35-0.1-0.7-0.16-1.06c0-1.37,0-2.73,0-4.1
		c0.17-1.39,0.32-2.78,0.71-4.12c2.65-9.33,8.66-15.34,17.96-18.06c1.39-0.41,2.83-0.57,4.26-0.75C29.29,5,30.66,5,32.02,5z"/>
</g>
</svg>
