<?xml version="1.0" encoding="utf-8"?>
<!-- Generator: Adobe Illustrator 25.4.1, SVG Export Plug-In . SVG Version: 6.00 Build 0)  -->
<svg version="1.1" id="Layer_1" xmlns="http://www.w3.org/2000/svg" xmlns:xlink="http://www.w3.org/1999/xlink" x="0px" y="0px"
	 viewBox="0 0 60 60" style="enable-background:new 0 0 60 60;" xml:space="preserve">
<style type="text/css">
	.st0{fill:#3FA89B;}
</style>
<g>
	<path class="st0" d="M5,27.97c0.17-1.27,0.33-2.54,0.63-3.79c0.92-3.87,2.67-7.32,5.24-10.34c3.4-3.99,7.63-6.68,12.69-8.03
		c2.82-0.75,5.69-0.97,8.6-0.71c6.42,0.57,11.82,3.25,16.2,7.95c3.43,3.67,5.56,8.02,6.32,13c0.96,6.34-0.2,12.28-3.75,17.65
		C47,49.64,41.5,53.31,34.48,54.65c-0.81,0.15-1.63,0.24-2.45,0.36c-1.37,0-2.73,0-4.1,0c-0.09-0.02-0.19-0.05-0.28-0.06
		c-1.41-0.1-2.8-0.36-4.16-0.73c-5.04-1.36-9.24-4.06-12.62-8.02c-2.57-3.02-4.32-6.46-5.23-10.33c-0.3-1.25-0.46-2.52-0.63-3.78
		C5,30.7,5,29.33,5,27.97z M29.96,53.33c12.8,0.09,23.33-10.48,23.34-23.3C53.31,17.22,42.8,6.69,29.99,6.68
		C17.18,6.68,6.65,17.18,6.65,30C6.64,42.8,17.14,53.4,29.96,53.33z"/>
	<path class="st0" d="M29.99,14.47c3.02,0,6.05-0.01,9.07,0c3.5,0.01,6.44,2.94,6.45,6.43c0.01,6.08,0.01,12.16,0,18.24
		c0,3.46-2.96,6.41-6.42,6.41c-6.08,0.01-12.16,0.01-18.24,0c-3.46,0-6.42-2.95-6.42-6.41c-0.01-6.1-0.01-12.19,0-18.29
		c0.01-3.43,2.97-6.37,6.39-6.39c0.05,0,0.1,0,0.15,0C23.98,14.47,26.99,14.47,29.99,14.47z M29.92,43.86L29.92,43.86
		c2.89,0,5.79,0,8.68,0c0.44,0,0.88,0.01,1.31-0.08c2.21-0.44,3.92-2.54,3.91-4.78c-0.03-6-0.01-12-0.01-18
		c0-0.31-0.02-0.62-0.08-0.92c-0.42-2.17-2.49-3.96-4.96-3.93c-5.87,0.06-11.74,0.02-17.61,0.02c-0.36,0-0.72,0-1.07,0.07
		c-2.33,0.47-3.96,2.39-3.96,4.77c-0.02,6.02-0.01,12.03,0,18.05c0,0.29,0.02,0.59,0.07,0.87c0.43,2.24,2.53,3.98,4.79,3.95
		C23.97,43.83,26.95,43.86,29.92,43.86z"/>
	<path class="st0" d="M38.19,29.88c-0.05,1.44-0.32,2.66-0.9,3.82c-0.27,0.53-0.7,0.74-1.14,0.54c-0.48-0.21-0.65-0.68-0.4-1.23
		c0.47-1,0.73-2.04,0.72-3.15c-0.02-3-2.41-5.78-5.38-6.24c-4.19-0.65-7.73,2.46-7.63,6.7c0.07,2.94,2.51,5.69,5.41,6.12
		c1.48,0.22,2.88,0,4.19-0.71c0.11-0.06,0.23-0.12,0.35-0.17c0.51-0.21,0.94-0.08,1.16,0.36c0.21,0.41,0.07,0.86-0.38,1.12
		c-0.92,0.55-1.9,0.93-2.95,1.09c-4.46,0.7-8.65-2.34-9.38-6.81c-0.7-4.22,2.07-8.33,6.26-9.29c4.62-1.06,9.22,2.03,9.95,6.7
		C38.14,29.15,38.23,29.59,38.19,29.88z"/>
	<path class="st0" d="M40.53,20.57c-0.01,1.16-1,2.15-2.15,2.15c-1.18,0-2.19-1.02-2.17-2.19c0.02-1.19,1.03-2.17,2.2-2.15
		C39.58,18.41,40.54,19.4,40.53,20.57z"/>
</g>
</svg>
