<?xml version="1.0" encoding="utf-8"?>
<!-- Generator: Adobe Illustrator 25.4.1, SVG Export Plug-In . SVG Version: 6.00 Build 0)  -->
<svg version="1.1" id="Layer_1" xmlns="http://www.w3.org/2000/svg" xmlns:xlink="http://www.w3.org/1999/xlink" x="0px" y="0px"
	 viewBox="0 0 60 60" style="enable-background:new 0 0 60 60;" xml:space="preserve">
<g>
	<path d="M27.98,54.98c-1.27-0.17-2.54-0.33-3.78-0.63c-3.87-0.92-7.31-2.67-10.33-5.24c-3.98-3.39-6.68-7.62-8.03-12.68
		c-0.75-2.82-0.97-5.68-0.71-8.59c0.57-6.42,3.25-11.81,7.94-16.18c3.67-3.43,8.01-5.56,12.99-6.31c6.34-0.96,12.27,0.2,17.63,3.75
		c5.94,3.93,9.6,9.43,10.94,16.44c0.15,0.81,0.24,1.63,0.36,2.45c0,1.36,0,2.73,0,4.09c-0.02,0.11-0.05,0.22-0.06,0.33
		c-0.1,1.34-0.35,2.67-0.69,3.97c-1.35,5.09-4.05,9.34-8.06,12.75c-3.01,2.57-6.46,4.31-10.32,5.23c-1.25,0.3-2.51,0.46-3.78,0.63
		C30.71,54.98,29.34,54.98,27.98,54.98z M30.01,6.74c-12.8-0.07-23.3,10.51-23.29,23.3c0.01,12.8,10.53,23.3,23.32,23.29
		c12.8-0.01,23.3-10.53,23.29-23.32C53.32,17.21,42.8,6.65,30.01,6.74z"/>
	<path d="M30.05,14.5c3.02,0,6.04-0.01,9.06,0c3.49,0.01,6.44,2.94,6.44,6.43c0.01,6.07,0.01,12.15,0,18.22
		c0,3.45-2.96,6.4-6.42,6.4c-6.07,0.01-12.15,0.01-18.22,0c-3.46,0-6.41-2.95-6.42-6.4c-0.01-6.09-0.01-12.18,0-18.27
		c0.01-3.42,2.96-6.36,6.39-6.38c0.05,0,0.1,0,0.15,0C24.04,14.5,27.04,14.5,30.05,14.5z M29.98,43.86
		C29.98,43.86,29.98,43.86,29.98,43.86c2.89,0,5.78,0,8.67,0c0.44,0,0.87,0.01,1.31-0.08c2.21-0.44,3.92-2.54,3.91-4.78
		c-0.03-5.99-0.01-11.99-0.01-17.98c0-0.31-0.02-0.62-0.08-0.92c-0.42-2.17-2.49-3.95-4.95-3.93c-5.86,0.06-11.73,0.02-17.59,0.02
		c-0.36,0-0.72,0-1.07,0.07c-2.33,0.47-3.95,2.39-3.96,4.76c-0.02,6.01-0.01,12.02,0,18.03c0,0.29,0.02,0.59,0.07,0.87
		c0.43,2.24,2.53,3.97,4.79,3.94C24.03,43.83,27,43.86,29.98,43.86z"/>
	<path d="M23.52,30.01c0,4.88,5.16,8.02,9.5,5.77c0.16-0.08,0.32-0.17,0.48-0.24c0.49-0.2,0.9-0.07,1.13,0.36
		c0.21,0.41,0.09,0.86-0.36,1.13c-0.93,0.56-1.92,0.95-3,1.11c-4.42,0.64-8.42-2.2-9.3-6.6c-0.85-4.28,1.99-8.58,6.28-9.51
		c4.6-1,9.1,2.05,9.86,6.69c0.29,1.75-0.01,3.42-0.79,5.01c-0.25,0.5-0.69,0.7-1.11,0.52c-0.48-0.2-0.67-0.68-0.42-1.22
		c0.45-0.96,0.72-1.94,0.73-3c0-3.08-2.18-5.75-5.21-6.37C27.31,22.84,23.52,25.93,23.52,30.01z"/>
	<path d="M40.58,20.57c0,1.16-0.98,2.15-2.13,2.16c-1.18,0.01-2.18-0.99-2.18-2.17c0-1.18,1.01-2.17,2.19-2.16
		C39.61,18.42,40.58,19.41,40.58,20.57z"/>
</g>
</svg>
