<?xml version="1.0" encoding="utf-8"?>
<!-- Generator: Adobe Illustrator 25.4.1, SVG Export Plug-In . SVG Version: 6.00 Build 0)  -->
<svg version="1.1" id="Layer_1" xmlns="http://www.w3.org/2000/svg" xmlns:xlink="http://www.w3.org/1999/xlink" x="0px" y="0px"
	 viewBox="0 0 60 60" style="enable-background:new 0 0 60 60;" xml:space="preserve">
<g>
	<path d="M55,32.02c-0.17,1.27-0.33,2.54-0.63,3.79c-0.92,3.87-2.67,7.32-5.25,10.34c-3.4,3.99-7.63,6.68-12.71,8.03
		c-2.82,0.75-5.7,0.97-8.61,0.71c-6.43-0.57-11.83-3.25-16.22-7.95c-3.43-3.67-5.54-8.03-6.33-13c-0.1-0.64-0.17-1.28-0.26-1.93
		c0-1.37,0-2.73,0-4.1c0.02-0.11,0.05-0.22,0.06-0.33c0.11-1.39,0.37-2.76,0.73-4.11c1.36-5.04,4.06-9.25,8.03-12.62
		c3.02-2.57,6.47-4.32,10.34-5.23c1.25-0.3,2.52-0.46,3.79-0.63c1.37,0,2.73,0,4.1,0c0.09,0.02,0.19,0.05,0.28,0.06
		c1.41,0.1,2.8,0.36,4.16,0.73c5.05,1.36,9.25,4.06,12.64,8.02c2.57,3.02,4.32,6.46,5.24,10.33c0.3,1.25,0.46,2.52,0.63,3.78
		C55,29.29,55,30.66,55,32.02z M30,53.29c12.82,0.08,23.35-10.5,23.35-23.31C53.35,17.16,42.82,6.65,30,6.65
		c-12.82,0-23.35,10.52-23.35,23.33C6.65,42.79,17.18,53.37,30,53.29z"/>
	<path d="M27.04,33.64c0-2.5,0-5.01,0-7.51c0-0.9,0.29-1.21,1.19-1.22c1.19-0.02,2.38-0.01,3.56,0c0.74,0.01,0.97,0.17,1.15,0.86
		c0.09,0.35,0.26,0.15,0.39,0.09c0.81-0.38,1.66-0.65,2.55-0.8c4.15-0.69,7.76,1.46,9.1,5.43c0.37,1.1,0.57,2.23,0.57,3.39
		c0,2.47,0,4.94,0,7.41c0,0.8-0.28,1.09-1.08,1.1c-1.59,0.01-3.19,0.01-4.78,0c-0.74,0-1.04-0.3-1.04-1.03
		c-0.01-1.02-0.01-2.05,0-3.07c0-0.59,0.28-0.92,0.76-0.94c0.51-0.03,0.85,0.26,0.89,0.87c0.05,0.65,0.04,1.3,0.03,1.95
		c0,0.36,0.1,0.54,0.5,0.53c0.85-0.02,1.69-0.02,2.54,0c0.36,0.01,0.49-0.12,0.49-0.48c-0.02-2.34,0.08-4.69-0.06-7.02
		c-0.17-2.8-1.68-5.59-4.69-6.33c-2.17-0.54-4.19-0.14-6.04,1.11c-0.05,0.04-0.11,0.07-0.16,0.11c-0.36,0.28-0.74,0.53-1.2,0.27
		c-0.45-0.25-0.5-0.7-0.47-1.15c0.04-0.46-0.11-0.66-0.6-0.61c-0.39,0.04-0.78,0.01-1.17,0.01c-0.73,0-0.73,0-0.73,0.71
		c0,3.37,0,6.73,0,10.1c0,0.93,0.01,1.85-0.01,2.78c-0.01,0.38,0.11,0.52,0.5,0.51c0.86-0.02,1.73-0.02,2.59,0
		c0.36,0.01,0.48-0.12,0.48-0.48c-0.01-1.61-0.02-3.22,0.01-4.83c0.02-1.09,0.23-2.16,0.72-3.16c0.66-1.34,1.76-2.05,3.23-2.04
		c1.64,0,2.8,0.83,3.45,2.34c0.2,0.48,0.34,0.98,0.43,1.49c0.1,0.59-0.15,1.01-0.67,1.12c-0.46,0.1-0.87-0.21-0.99-0.78
		c-0.1-0.45-0.19-0.89-0.39-1.3c-0.37-0.76-0.99-1.18-1.82-1.17c-0.8,0-1.38,0.41-1.74,1.13c-0.36,0.71-0.5,1.48-0.51,2.26
		c-0.02,1.89-0.01,3.77-0.01,5.66c0,1.23-0.23,1.46-1.44,1.46c-1.46,0-2.93,0-4.39,0c-0.84,0-1.15-0.31-1.15-1.15
		C27.04,38.71,27.04,36.17,27.04,33.64z"/>
	<path d="M23.49,33.68c0,2.49,0,4.97,0,7.46c0,0.98-0.28,1.26-1.24,1.26c-1.53,0-3.06,0-4.59,0c-0.82,0-1.15-0.33-1.15-1.16
		c0-5.05,0-10.11,0-15.16c0-0.82,0.33-1.16,1.16-1.17c1.56-0.02,3.12-0.02,4.68,0c0.85,0.01,1.14,0.33,1.14,1.17
		C23.49,28.61,23.48,31.15,23.49,33.68z M21.77,33.67c0-2.16-0.01-4.32,0.01-6.48c0.01-0.48-0.15-0.61-0.62-0.6
		c-0.83,0.03-1.66,0.02-2.49,0c-0.32-0.01-0.47,0.08-0.47,0.44c0.01,4.4,0.01,8.81,0,13.21c0,0.35,0.13,0.45,0.46,0.45
		c0.85-0.01,1.69-0.03,2.54,0.01c0.46,0.02,0.58-0.16,0.57-0.59C21.76,37.96,21.77,35.81,21.77,33.67z"/>
	<path d="M15.49,19.63c-0.15-1.97,1.52-3.92,3.44-4.13c2.41-0.25,4.4,1.42,4.53,3.77c0.12,2.08-1.41,4.05-3.81,4.18
		C17.38,23.56,15.55,21.78,15.49,19.63z M21.77,19.44c0-1.25-1.06-2.3-2.31-2.29c-1.24,0.01-2.32,1.11-2.29,2.33
		c0.03,1.27,1.06,2.28,2.33,2.27C20.75,21.75,21.77,20.71,21.77,19.44z"/>
</g>
</svg>
