<?xml version="1.0" encoding="utf-8"?>
<!-- Generator: Adobe Illustrator 25.4.1, SVG Export Plug-In . SVG Version: 6.00 Build 0)  -->
<svg version="1.1" id="Layer_1" xmlns="http://www.w3.org/2000/svg" xmlns:xlink="http://www.w3.org/1999/xlink" x="0px" y="0px"
	 viewBox="0 0 60 60" style="enable-background:new 0 0 60 60;" xml:space="preserve">
<style type="text/css">
	.st0{fill:#3FA89B;}
</style>
<g>
	<path class="st0" d="M5,27.97c0.17-1.27,0.33-2.54,0.63-3.79c0.92-3.87,2.67-7.32,5.24-10.34c3.4-3.99,7.63-6.68,12.69-8.03
		c2.82-0.75,5.69-0.97,8.6-0.71c6.42,0.57,11.82,3.25,16.2,7.95c3.43,3.67,5.56,8.02,6.32,13c0.96,6.34-0.2,12.28-3.75,17.65
		C47,49.64,41.5,53.31,34.48,54.65c-0.81,0.15-1.63,0.24-2.45,0.36c-1.37,0-2.73,0-4.1,0c-0.09-0.02-0.19-0.05-0.28-0.06
		c-1.41-0.1-2.8-0.36-4.16-0.73c-5.04-1.36-9.24-4.06-12.62-8.02c-2.57-3.02-4.32-6.46-5.23-10.33c-0.3-1.25-0.46-2.52-0.63-3.78
		C5,30.7,5,29.33,5,27.97z M29.96,6.7C17.15,6.63,6.64,17.22,6.65,30.03c0.01,12.82,10.53,23.33,23.34,23.32S53.3,42.81,53.3,30
		C53.29,17.19,42.76,6.61,29.96,6.7z"/>
	<path class="st0" d="M27.02,33.66c0-2.5,0-5.01,0-7.51c0-0.89,0.29-1.2,1.2-1.21c1.17-0.01,2.34-0.01,3.51,0
		c0.61,0.01,1.1,0.14,1.2,0.87c0.04,0.31,0.21,0.17,0.35,0.1c1.19-0.57,2.43-0.88,3.75-0.92c3.2-0.08,5.62,1.23,7.23,3.99
		c0.87,1.51,1.26,3.16,1.26,4.9c0.01,2.47,0,4.94,0,7.41c0,0.86-0.27,1.13-1.14,1.14c-1.56,0-3.12,0-4.68,0
		c-0.8,0-1.08-0.29-1.08-1.09c0-1.01-0.01-2.02,0-3.02c0.01-0.58,0.29-0.91,0.77-0.94c0.5-0.02,0.83,0.26,0.87,0.83
		c0.05,0.66,0.05,1.33,0.04,2c0,0.37,0.12,0.53,0.51,0.52c0.84-0.02,1.69-0.02,2.54,0c0.37,0.01,0.48-0.14,0.48-0.49
		c-0.02-2.32,0.07-4.65-0.05-6.97c-0.14-2.65-1.52-5.31-4.14-6.2c-2.34-0.8-4.54-0.42-6.59,0.94c-0.05,0.04-0.11,0.07-0.16,0.11
		c-0.34,0.27-0.71,0.51-1.16,0.29c-0.47-0.23-0.51-0.67-0.51-1.13c0-0.64-0.01-0.64-0.64-0.64c-0.47,0-0.94,0.01-1.41,0
		c-0.32-0.01-0.44,0.11-0.43,0.43c0.01,0.7,0,1.4,0,2.1c0,3.64,0,7.28,0,10.93c0,0.64,0,0.64,0.65,0.64c0.78,0,1.56-0.02,2.34,0.01
		c0.46,0.02,0.58-0.15,0.57-0.59c-0.02-1.48-0.02-2.96,0-4.44c0.01-1.2,0.2-2.36,0.74-3.45c0.67-1.36,1.79-2.06,3.28-2.03
		c1.69,0.03,2.83,0.92,3.44,2.49c0.16,0.41,0.26,0.84,0.36,1.26c0.15,0.65-0.1,1.09-0.65,1.21c-0.48,0.1-0.88-0.24-1-0.89
		c-0.07-0.35-0.15-0.7-0.29-1.03c-0.35-0.85-0.98-1.34-1.91-1.34c-0.89,0-1.48,0.51-1.82,1.31c-0.28,0.67-0.42,1.37-0.42,2.09
		c-0.02,1.93-0.01,3.87-0.01,5.8c0,1.02-0.29,1.31-1.3,1.31c-1.5,0-2.99,0-4.49,0c-0.9,0-1.19-0.3-1.19-1.21
		C27.01,38.7,27.02,36.18,27.02,33.66z"/>
	<path class="st0" d="M23.46,33.72c0,2.49,0,4.97,0,7.46c0,0.97-0.28,1.25-1.24,1.25c-1.51,0-3.02,0-4.53,0
		c-0.86,0-1.2-0.32-1.2-1.16c0-5.05,0-10.11,0-15.16c0-0.82,0.33-1.16,1.16-1.17c1.56-0.02,3.12-0.02,4.68,0
		c0.84,0.01,1.13,0.33,1.14,1.17C23.47,28.65,23.46,31.19,23.46,33.72z M21.75,33.69c0-2.18-0.01-4.36,0.01-6.53
		c0-0.4-0.11-0.55-0.52-0.53c-0.84,0.03-1.69,0.02-2.53,0c-0.38-0.01-0.51,0.11-0.51,0.5c0.01,4.37,0.01,8.74,0,13.11
		c0,0.41,0.16,0.49,0.52,0.49c0.81-0.02,1.63-0.03,2.44,0c0.47,0.02,0.62-0.13,0.61-0.6C21.74,37.98,21.75,35.84,21.75,33.69z"/>
	<path class="st0" d="M15.47,19.46c0.07-2.24,1.87-4.01,4.04-3.95c2.24,0.06,4.03,1.92,3.95,4.11c-0.09,2.18-1.95,3.96-4.08,3.89
		C17.19,23.43,15.4,21.58,15.47,19.46z M19.44,21.79c1.27,0,2.3-1.02,2.31-2.28s-1.01-2.29-2.28-2.32
		c-1.21-0.02-2.31,1.06-2.32,2.29C17.14,20.74,18.19,21.79,19.44,21.79z"/>
</g>
</svg>
