<?xml version="1.0" encoding="utf-8"?>
<!-- Generator: Adobe Illustrator 25.4.1, SVG Export Plug-In . SVG Version: 6.00 Build 0)  -->
<svg version="1.1" id="Layer_1" xmlns="http://www.w3.org/2000/svg" xmlns:xlink="http://www.w3.org/1999/xlink" x="0px" y="0px"
	 viewBox="0 0 60 60" style="enable-background:new 0 0 60 60;" xml:space="preserve">
<style type="text/css">
	.st0{fill:#FFFFFF;}
</style>
<g>
	<path class="st0" d="M31.72,5c1.67,0.23,3.3,0.55,4.79,1.2c4.43,1.93,7.02,4.86,7.59,8.86c0.69,4.84-2.84,9.4-8.3,11.38
		c-4.89,1.78-11.32,0.99-15.26-1.89c-2.89-2.11-4.51-4.7-4.72-7.79c-0.21-2.98,0.96-5.65,3.43-7.91c2.33-2.14,5.3-3.41,8.84-3.8
		c0.06-0.01,0.11-0.03,0.17-0.05C29.42,5,30.57,5,31.72,5z"/>
	<path class="st0" d="M29.99,55c-6.08,0-12.17,0-18.25,0C7.87,55,4.97,52.59,5,49.54c0.04-3.88,1.43-7.43,4.09-10.67
		c2.33-2.84,5.42-5.04,9.19-6.63c4.2-1.77,8.7-2.51,13.44-2.27c3.81,0.19,7.38,1.08,10.69,2.58c4.03,1.83,7.19,4.36,9.45,7.58
		c1.61,2.3,2.64,4.75,2.98,7.38c0.14,1.13,0.29,2.27-0.02,3.4C54.17,53.27,51.43,55,48.36,55C42.24,55,36.11,55,29.99,55z"/>
</g>
</svg>
