<?xml version="1.0" encoding="utf-8"?>
<!-- Generator: Adobe Illustrator 25.4.1, SVG Export Plug-In . SVG Version: 6.00 Build 0)  -->
<svg version="1.1" id="Layer_1" xmlns="http://www.w3.org/2000/svg" xmlns:xlink="http://www.w3.org/1999/xlink" x="0px" y="0px"
	 viewBox="0 0 60 60" style="enable-background:new 0 0 60 60;" xml:space="preserve">
<g>
	<path d="M5,46.01c0-8.28,0-16.57,0-24.85c0.1,0.06,0.2,0.11,0.29,0.18c6.72,4.77,13.44,9.55,20.16,14.33
		c3.04,2.16,6,2.16,9.05-0.01c3.42-2.43,6.84-4.86,10.26-7.29c3.23-2.3,6.46-4.59,9.69-6.89c0.13-0.09,0.26-0.28,0.42-0.2
		c0.17,0.09,0.07,0.31,0.09,0.47c0.01,0.05,0,0.1,0,0.16c0,7.69,0,15.38,0,23.07c0,2.84-2.02,5-4.69,5c-13.55,0-27.11,0-40.66,0
		c-0.43,0-0.84-0.06-1.25-0.18C6.55,49.25,5.48,47.93,5,46.01z"/>
	<path d="M5,13.99c0.49-1.92,1.56-3.24,3.38-3.81C8.79,10.06,9.2,10,9.63,10c13.55,0,27.11,0,40.66,0c2.12,0,3.9,1.41,4.5,3.52
		c0.6,2.11-0.11,4.2-1.9,5.48c-6.73,4.79-13.46,9.58-20.2,14.35c-1.82,1.29-3.66,1.27-5.47-0.02c-6.72-4.77-13.44-9.55-20.16-14.32
		C5.97,18.25,5.29,17.2,5,15.86C5,15.24,5,14.61,5,13.99z"/>
</g>
</svg>
