<?xml version="1.0" encoding="utf-8"?>
<!-- Generator: Adobe Illustrator 25.4.1, SVG Export Plug-In . SVG Version: 6.00 Build 0)  -->
<svg version="1.1" id="Layer_1" xmlns="http://www.w3.org/2000/svg" xmlns:xlink="http://www.w3.org/1999/xlink" x="0px" y="0px"
	 viewBox="0 0 60 60" style="enable-background:new 0 0 60 60;" xml:space="preserve">
<g>
	<path d="M19.05,5c1.15,0.37,2.11,0.99,2.71,2.09c0.39,0.71,0.51,1.48,0.52,2.26c0.02,2.85,0.5,5.63,1.33,8.34
		c0.51,1.65,0.17,3.06-0.93,4.4c-1.36,1.66-2.59,3.42-3.89,5.13c-0.16,0.21-0.16,0.38-0.03,0.61c1.9,3.47,4.18,6.63,7.21,9.2
		c1.9,1.61,3.98,2.98,6.17,4.18c0.23,0.13,0.41,0.12,0.62-0.04c1.78-1.36,3.58-2.7,5.36-4.07c1.12-0.86,2.34-1.19,3.7-0.82
		c1.63,0.43,3.25,0.9,4.93,1.15c1.45,0.22,2.91,0.26,4.37,0.33c2.11,0.1,3.86,1.83,3.87,3.95c0.01,3.12,0.01,6.25,0,9.37
		c-0.01,2.14-1.79,3.91-3.92,3.93c-6.7,0.05-13.09-1.35-19.18-4.12c-5.33-2.43-10.03-5.76-14.08-9.99
		C12.14,34.97,8.29,28.04,6.3,20.09c-0.66-2.65-1.1-5.34-1.24-8.07c0-0.1-0.04-0.19-0.06-0.28c0-1.2,0-2.41,0-3.61
		C5.23,7.61,5.4,7.07,5.74,6.6C6.35,5.77,7.19,5.33,8.12,5C11.77,5,15.41,5,19.05,5z"/>
</g>
</svg>
