<?xml version="1.0" encoding="utf-8"?>
<!-- Generator: Adobe Illustrator 25.4.1, SVG Export Plug-In . SVG Version: 6.00 Build 0)  -->
<svg version="1.1" id="Layer_1" xmlns="http://www.w3.org/2000/svg" xmlns:xlink="http://www.w3.org/1999/xlink" x="0px" y="0px"
	 viewBox="0 0 60 60" style="enable-background:new 0 0 60 60;" xml:space="preserve">
<g>
	<path d="M28,5c1.38,0.19,2.75,0.4,4.1,0.8c2.94,0.87,5.57,2.3,7.88,4.32c3.79,3.3,6.14,7.44,6.92,12.41
		c0.63,4,0.08,7.86-1.59,11.55c-0.82,1.8-1.87,3.45-3.16,4.95c-0.43,0.49-0.42,0.5,0.04,0.96c4,3.94,8.01,7.89,12.01,11.83
		c0.3,0.3,0.59,0.61,0.8,0.98c0,0.36,0,0.72,0,1.07c-0.8,1.36-1.93,1.52-3.07,0.4c-3.53-3.48-7.05-6.96-10.58-10.44
		c-0.54-0.54-1.11-1.05-1.64-1.6c-0.31-0.33-0.54-0.35-0.9-0.07c-2.12,1.63-4.49,2.8-7.08,3.48c-5.69,1.49-11.14,0.89-16.26-2.07
		c-4.55-2.63-7.8-6.42-9.39-11.44c-2.13-6.71-1.16-13.01,3.05-18.69c3.41-4.6,8.03-7.28,13.66-8.24C23.26,5.11,23.73,5.06,24.2,5
		C25.46,5,26.73,5,28,5z M8.4,25.64c-0.04,1.26,0.11,2.48,0.39,3.68c0.85,3.75,2.7,6.91,5.62,9.41c4.41,3.76,9.51,5.04,15.17,4.01
		c3.16-0.57,5.97-1.97,8.35-4.15c4.55-4.17,6.48-9.34,5.64-15.47c-0.61-4.45-2.77-8.09-6.24-10.89C33.7,9.29,29.5,8,24.82,8.32
		c-2.87,0.2-5.56,1-7.99,2.53C11.38,14.27,8.61,19.23,8.4,25.64z"/>
</g>
</svg>
