<?xml version="1.0" encoding="utf-8"?>
<!-- Generator: Adobe Illustrator 25.4.1, SVG Export Plug-In . SVG Version: 6.00 Build 0)  -->
<svg version="1.1" id="Layer_1" xmlns="http://www.w3.org/2000/svg" xmlns:xlink="http://www.w3.org/1999/xlink" x="0px" y="0px"
	 viewBox="0 0 60 60" style="enable-background:new 0 0 60 60;" xml:space="preserve">
<style type="text/css">
	.st0{fill:#3EA89B;}
</style>
<g>
	<path class="st0" d="M55,13.91c-0.93,3.69-1.87,7.38-2.8,11.07c-0.99,3.94-1.98,7.89-2.97,11.83c-0.29,1.17-0.75,1.54-1.84,1.54
		c-8.52,0-17.04,0-25.56,0c-0.31,0-0.62,0.01-0.92,0.1c-0.63,0.2-1.07,0.83-1.06,1.54c0.01,0.72,0.45,1.32,1.09,1.52
		c0.3,0.09,0.61,0.09,0.92,0.09c8.57,0,17.14,0,25.71,0c1.02,0,1.66,0.71,1.62,1.8c-0.03,0.88-0.63,1.57-1.41,1.6
		c-0.63,0.02-1.27,0-1.92,0.03c1.16,0.4,2.08,1.16,2.71,2.34c0.62,1.18,0.81,2.46,0.5,3.79c-0.59,2.54-2.45,4-4.79,3.82
		c-1.89-0.15-3.68-2.1-3.91-4.3c-0.27-2.46,0.93-4.83,3.37-5.64c-6.21,0-12.33,0-18.47,0c2.75,1.01,3.6,3.66,3.28,5.79
		c-0.35,2.37-2.17,4.14-4.21,4.17c-2.27,0.04-4.06-1.55-4.52-4.07c-0.35-1.9,0.29-4.77,3.31-5.91c-0.69,0-1.32,0.01-1.95,0
		c-2.03-0.02-3.69-1.53-4.24-3.85c-0.49-2.07,0.37-4.42,2.06-5.51c0.36-0.23,0.41-0.46,0.33-0.88c-1.69-8.59-3.37-17.19-5.04-25.79
		c-0.09-0.44-0.24-0.6-0.65-0.59C11.24,8.42,8.85,8.41,6.46,8.4c-0.73,0-1.33-0.61-1.44-1.38C4.9,6.15,5.3,5.37,6.01,5.08
		C6.2,5,6.39,5,6.59,5c2.89,0,5.79,0,8.68,0c0.87,0,1.4,0.45,1.61,1.43c0.32,1.51,0.62,3.02,0.89,4.54c0.1,0.56,0.31,0.69,0.78,0.69
		c11.56-0.01,23.12-0.01,34.69-0.02c0.83,0,1.41,0.31,1.77,1.16C55,13.17,55,13.54,55,13.91z"/>
</g>
</svg>
