<?xml version="1.0" encoding="utf-8"?>
<!-- Generator: Adobe Illustrator 25.4.1, SVG Export Plug-In . SVG Version: 6.00 Build 0)  -->
<svg version="1.1" id="Layer_1" xmlns="http://www.w3.org/2000/svg" xmlns:xlink="http://www.w3.org/1999/xlink" x="0px" y="0px"
	 viewBox="0 0 60 60" style="enable-background:new 0 0 60 60;" xml:space="preserve">
<g>
	<path d="M5,27.98c0.17-1.27,0.33-2.54,0.63-3.79c0.92-3.87,2.67-7.32,5.24-10.34c3.4-3.99,7.63-6.68,12.69-8.03
		c2.82-0.75,5.69-0.97,8.6-0.71c6.42,0.57,11.82,3.25,16.2,7.95c3.43,3.67,5.56,8.02,6.32,13c0.96,6.34-0.2,12.28-3.75,17.65
		c-3.93,5.94-9.43,9.61-16.45,10.95c-0.81,0.15-1.63,0.24-2.45,0.36c-1.37,0-2.73,0-4.1,0c-0.09-0.02-0.19-0.05-0.28-0.06
		c-1.41-0.1-2.8-0.36-4.16-0.73c-5.04-1.36-9.24-4.06-12.62-8.02c-2.57-3.02-4.32-6.46-5.23-10.33c-0.3-1.25-0.46-2.52-0.63-3.78
		C5,30.71,5,29.34,5,27.98z M29.94,53.34c12.8,0.1,23.34-10.46,23.35-23.28C53.31,17.25,42.82,6.71,30,6.69
		C17.2,6.68,6.66,17.17,6.65,30C6.63,42.79,17.12,53.4,29.94,53.34z"/>
	<path d="M28,42.8c2.26,0.06,4.52-0.01,6.77-0.03c0.5,0,1-0.07,1.51-0.08c0.63-0.01,1.04,0.35,1.03,0.86
		c-0.01,0.48-0.4,0.8-1.01,0.85c-2.08,0.15-4.16,0.14-6.23,0.14c-2.87,0-5.75-0.04-8.62-0.26c-2.22-0.17-4.43-0.37-6.64-0.58
		c-1.58-0.15-2.59-1.2-2.8-2.83c-0.39-3.09-0.66-6.19-0.72-9.32c-0.08-4,0.15-7.98,0.68-11.95c0.09-0.63,0.15-1.26,0.48-1.82
		c0.51-0.86,1.29-1.33,2.27-1.42c1.98-0.2,3.97-0.38,5.96-0.53c3.01-0.23,6.03-0.31,9.05-0.32c2.56-0.01,5.13,0.01,7.69,0.21
		c1.52,0.12,3.04,0.2,4.56,0.32c1.08,0.09,2.17,0.17,3.24,0.32c1.58,0.21,2.51,1.25,2.71,2.86c0.38,3.11,0.66,6.23,0.71,9.36
		c0.04,2.8-0.06,5.58-0.3,8.37c-0.12,1.41-0.26,2.81-0.5,4.2c-0.24,1.42-1.08,2.29-2.5,2.48c-1.64,0.22-3.29,0.33-4.94,0.45
		c-0.61,0.05-0.96-0.32-0.92-0.87c0.03-0.43,0.28-0.7,0.7-0.75c0.9-0.11,1.81-0.2,2.71-0.29c0.73-0.07,1.46-0.12,2.18-0.21
		c0.61-0.08,1.04-0.49,1.12-1.12c0.2-1.54,0.38-3.09,0.52-4.64c0.17-1.78,0.19-3.57,0.26-5.35c0.06-1.69-0.07-3.38-0.14-5.06
		c-0.09-2.14-0.34-4.27-0.61-6.39c-0.11-0.88-0.5-1.27-1.36-1.36c-3.13-0.33-6.27-0.57-9.42-0.71c-3.43-0.15-6.85-0.15-10.28-0.04
		c-3.41,0.1-6.8,0.37-10.19,0.76c-0.74,0.09-1.18,0.5-1.27,1.24c-0.4,3.04-0.66,6.1-0.73,9.17c-0.08,3.76,0.12,7.5,0.6,11.22
		c0.05,0.35,0.08,0.71,0.12,1.06c0.09,0.74,0.52,1.17,1.26,1.25c2.39,0.27,4.78,0.47,7.18,0.6C24.1,42.71,26.05,42.79,28,42.8z"/>
	<path d="M23.89,29.97c0-2.29,0-4.58,0-6.87c0-1.01,0.55-1.35,1.46-0.88c4.4,2.31,8.8,4.62,13.2,6.93c0.37,0.19,0.67,0.43,0.67,0.87
		c0,0.44-0.31,0.68-0.67,0.87c-4.39,2.3-8.77,4.61-13.16,6.91c-0.97,0.51-1.5,0.18-1.5-0.91C23.89,34.59,23.89,32.28,23.89,29.97z
		 M25.59,29.99c0,1.74,0,3.48,0,5.22c0,0.55,0.02,0.56,0.49,0.31c3.34-1.75,6.67-3.5,10.01-5.26c0.12-0.06,0.32-0.08,0.31-0.26
		c-0.01-0.13-0.19-0.16-0.3-0.22c-3.35-1.76-6.7-3.51-10.05-5.28c-0.37-0.2-0.47-0.13-0.47,0.28C25.6,26.52,25.59,28.26,25.59,29.99
		z"/>
</g>
</svg>
