<?xml version="1.0" encoding="utf-8"?>
<!-- Generator: Adobe Illustrator 25.4.1, SVG Export Plug-In . SVG Version: 6.00 Build 0)  -->
<svg version="1.1" id="Layer_1" xmlns="http://www.w3.org/2000/svg" xmlns:xlink="http://www.w3.org/1999/xlink" x="0px" y="0px"
	 viewBox="0 0 60 60" style="enable-background:new 0 0 60 60;" xml:space="preserve">
<style type="text/css">
	.st0{fill:#3FA89B;}
</style>
<g>
	<path class="st0" d="M27.97,55c-1.27-0.17-2.54-0.33-3.79-0.63c-3.87-0.92-7.32-2.67-10.34-5.24c-3.99-3.4-6.68-7.63-8.03-12.69
		c-0.75-2.82-0.97-5.69-0.71-8.6c0.57-6.42,3.25-11.82,7.95-16.2c3.67-3.43,8.02-5.56,13-6.32c6.34-0.96,12.28,0.2,17.64,3.75
		C49.63,13,53.3,18.5,54.64,25.52c0.15,0.81,0.24,1.63,0.36,2.45c0,1.37,0,2.73,0,4.1c-0.02,0.11-0.05,0.22-0.06,0.33
		c-0.1,1.35-0.35,2.67-0.69,3.97c-1.35,5.1-4.05,9.35-8.06,12.76c-3.02,2.57-6.46,4.31-10.33,5.23c-1.25,0.3-2.52,0.46-3.78,0.63
		C30.7,55,29.33,55,27.97,55z M29.99,53.34c12.8,0.1,23.33-10.46,23.35-23.28c0.02-12.8-10.48-23.34-23.29-23.35
		C17.24,6.69,6.7,17.18,6.68,30C6.67,42.8,17.16,53.4,29.99,53.34z"/>
	<path class="st0" d="M12.98,30.04c0.05,3.61,0.27,7.2,0.78,10.77c0.09,0.65,0.5,1.09,1.13,1.16c1.84,0.22,3.68,0.37,5.52,0.51
		c3.47,0.28,6.95,0.33,10.42,0.33c1.51,0,3.02,0.03,4.53-0.11c0.36-0.03,0.72-0.04,1.07-0.02c0.54,0.02,0.9,0.37,0.91,0.83
		c0.01,0.46-0.35,0.82-0.88,0.86c-0.62,0.05-1.23,0.08-1.85,0.09c-3.07,0.06-6.14,0.1-9.21-0.01c-3.05-0.11-6.1-0.27-9.13-0.64
		c-0.4-0.05-0.81-0.08-1.21-0.11c-1.74-0.11-2.81-1.18-3.04-2.91c-0.43-3.32-0.7-6.65-0.74-10c-0.03-2.21,0.06-4.41,0.23-6.62
		c0.14-1.78,0.3-3.56,0.6-5.32c0.25-1.47,1.28-2.38,2.75-2.52c3.25-0.31,6.5-0.59,9.76-0.72c1.75-0.07,3.51-0.11,5.26-0.1
		c3.05,0,6.1,0.06,9.15,0.3c2.01,0.16,4.01,0.35,6.01,0.51c1.62,0.13,2.7,1.15,2.91,2.82c0.39,3.08,0.66,6.16,0.73,9.26
		c0.05,2.29-0.03,4.58-0.15,6.86c-0.1,1.96-0.31,3.91-0.64,5.85c-0.25,1.46-1.11,2.33-2.58,2.53c-1.58,0.21-3.16,0.31-4.75,0.43
		c-0.65,0.05-0.99-0.21-1.04-0.69c-0.06-0.54,0.24-0.89,0.91-0.97c1.19-0.14,2.39-0.23,3.59-0.34c0.37-0.04,0.75-0.06,1.11-0.12
		c0.6-0.09,1.02-0.51,1.1-1.14c0.26-2.06,0.5-4.12,0.63-6.2c0.08-1.28,0.1-2.56,0.15-3.85c0.06-1.65-0.06-3.31-0.14-4.97
		c-0.08-1.92-0.28-3.82-0.52-5.72c-0.04-0.31-0.06-0.61-0.12-0.92c-0.11-0.66-0.54-1.06-1.22-1.14c-2.4-0.26-4.81-0.47-7.23-0.61
		c-2-0.12-3.99-0.16-5.99-0.2c-2.18-0.05-4.36-0.02-6.53,0.05c-3.02,0.1-6.03,0.28-9.03,0.64c-0.42,0.05-0.84,0.08-1.26,0.12
		c-0.72,0.07-1.16,0.5-1.25,1.21c-0.39,2.99-0.7,6-0.72,9.02C13.04,28.88,12.93,29.46,12.98,30.04z"/>
	<path class="st0" d="M23.93,30.03c0-2.31,0-4.61,0-6.92c0-1.02,0.55-1.36,1.45-0.89c4.4,2.31,8.8,4.62,13.2,6.93
		c0.37,0.19,0.68,0.43,0.68,0.87c0,0.44-0.3,0.68-0.67,0.87c-4.39,2.3-8.77,4.61-13.16,6.91c-0.97,0.51-1.5,0.18-1.5-0.9
		C23.93,34.61,23.93,32.32,23.93,30.03z M25.63,30.03c0,1.74,0,3.48,0,5.21c0,0.52,0.02,0.53,0.47,0.3
		c3.35-1.76,6.7-3.52,10.05-5.28c0.11-0.06,0.28-0.08,0.29-0.23c0-0.15-0.17-0.17-0.28-0.23c-3.35-1.76-6.7-3.52-10.05-5.28
		c-0.45-0.24-0.47-0.23-0.47,0.29C25.63,26.55,25.63,28.29,25.63,30.03z"/>
</g>
</svg>
